{
 "cells": [
  {
   "cell_type": "code",
   "execution_count": 1,
   "metadata": {},
   "outputs": [
    {
     "name": "stderr",
     "output_type": "stream",
     "text": [
      "ffmpeg version 4.3 Copyright (c) 2000-2020 the FFmpeg developers\n",
      "  built with gcc 7.3.0 (crosstool-NG 1.23.0.449-a04d0)\n",
      "  configuration: --prefix=/opt/conda/conda-bld/ffmpeg_1597178665428/_h_env_placehold_placehold_placehold_placehold_placehold_placehold_placehold_placehold_placehold_placehold_placehold_placehold_placehold_placehold_placehold_placehold_placehold_placehold_placehold_placehold_placeh --cc=/opt/conda/conda-bld/ffmpeg_1597178665428/_build_env/bin/x86_64-conda_cos6-linux-gnu-cc --disable-doc --disable-openssl --enable-avresample --enable-gnutls --enable-hardcoded-tables --enable-libfreetype --enable-libopenh264 --enable-pic --enable-pthreads --enable-shared --disable-static --enable-version3 --enable-zlib --enable-libmp3lame\n",
      "  libavutil      56. 51.100 / 56. 51.100\n",
      "  libavcodec     58. 91.100 / 58. 91.100\n",
      "  libavformat    58. 45.100 / 58. 45.100\n",
      "  libavdevice    58. 10.100 / 58. 10.100\n",
      "  libavfilter     7. 85.100 /  7. 85.100\n",
      "  libavresample   4.  0.  0 /  4.  0.  0\n",
      "  libswscale      5.  7.100 /  5.  7.100\n",
      "  libswresample   3.  7.100 /  3.  7.100\n",
      "Input #0, image2, from '/home/koudai/data/sample/results/*.jpg':\n",
      "  Duration: 00:03:02.32, start: 0.000000, bitrate: N/A\n",
      "    Stream #0:0: Video: mjpeg (Baseline), yuvj420p(pc, bt470bg/unknown/unknown), 1920x1080 [SAR 1:1 DAR 16:9], 25 fps, 25 tbr, 25 tbn, 25 tbc\n",
      "Stream mapping:\n",
      "  Stream #0:0 -> #0:0 (mjpeg (native) -> mpeg4 (native))\n",
      "Press [q] to stop, [?] for help\n",
      "[swscaler @ 0x55ec5dbcd480] deprecated pixel format used, make sure you did set range correctly\n",
      "Output #0, mp4, to 'results1.mp4':\n",
      "  Metadata:\n",
      "    encoder         : Lavf58.45.100\n",
      "    Stream #0:0: Video: mpeg4 (mp4v / 0x7634706D), yuv420p, 1920x1080 [SAR 1:1 DAR 16:9], q=2-31, 200 kb/s, 25 fps, 12800 tbn, 25 tbc\n",
      "    Metadata:\n",
      "      encoder         : Lavc58.91.100 mpeg4\n",
      "    Side data:\n",
      "      cpb: bitrate max/min/avg: 0/0/200000 buffer size: 0 vbv_delay: N/A\n",
      "frame= 4558 fps=118 q=31.0 Lsize=   42763kB time=00:03:02.28 bitrate=1921.8kbits/s speed=4.72x    \n",
      "video:42742kB audio:0kB subtitle:0kB other streams:0kB global headers:0kB muxing overhead: 0.048677%\n"
     ]
    },
    {
     "data": {
      "text/plain": [
       "(None, None)"
      ]
     },
     "execution_count": 1,
     "metadata": {},
     "output_type": "execute_result"
    }
   ],
   "source": [
    "import ffmpeg\n",
    "(\n",
    "    ffmpeg\n",
    "    .input('/home/koudai/data/sample/results/*.jpg', pattern_type='glob', framerate=25)\n",
    "    .output('results.mp4')\n",
    "    .run()\n",
    ")"
   ]
  }
 ],
 "metadata": {
  "kernelspec": {
   "display_name": "openmmlab",
   "language": "python",
   "name": "python3"
  },
  "language_info": {
   "codemirror_mode": {
    "name": "ipython",
    "version": 3
   },
   "file_extension": ".py",
   "mimetype": "text/x-python",
   "name": "python",
   "nbconvert_exporter": "python",
   "pygments_lexer": "ipython3",
   "version": "3.8.16"
  },
  "orig_nbformat": 4
 },
 "nbformat": 4,
 "nbformat_minor": 2
}
